<svg xmlns="http://www.w3.org/2000/svg" xmlns:xlink="http://www.w3.org/1999/xlink" x="0" y="0" version="1.1" viewBox="0 0 3000 3000" xml:space="preserve" style="enable-background:new 0 0 3000 3000"><style type="text/css">.st0{fill:#4600f5}.st1{fill:none}.st2{fill:#ad00ff}.st3{fill:#bc48ff}.st4{fill:#fff}</style><g id="Logo"><g><polygon points="987.3 1005 987.3 1301 1181.8 1117.3" class="st0"/><polygon points="1181.8 1117.3 987.3 1301 1181.8 1301" class="st0"/><polygon points="987.3 1301 1181.8 1484.7 1181.8 1301" class="st0"/><polygon points="987.3 1597 1181.8 1484.7 987.3 1301" class="st0"/><polygon points="1243.7 857 1243.7 857 1243.7 857" class="st1"/><polygon points="987.3 1005 1181.8 1117.3 1243.7 857" class="st0"/><polygon points="1243.7 857 1500 933.6 1500 709" class="st2"/><polygon points="1762 860.2 1762 860.2 1762 860.2" class="st0"/><polygon points="1500 709 1500 933.6 1762 860.2" class="st0"/><polygon points="1762 860.2 1818.2 1117.3 2012.7 1005" class="st0"/><polygon points="1818.2 1117.3 2012.7 1301 2012.7 1005" class="st0"/><polygon points="2012.7 1597 2012.7 1301 1818.2 1484.7" class="st2"/><polygon points="1181.8 1117.3 1340.9 1025.5 1243.7 857" class="st0"/><polygon points="1243.7 857 1340.9 1025.5 1500 933.6" class="st3"/><polygon points="1762 1741.8 1762 1741.8 1762 1741.8" class="st1"/><polygon points="1500 1893 1762 1741.8 1500 1668.4" class="st0"/><polygon points="2012.7 1597 1818.2 1484.7 1762 1741.8" class="st0"/><polygon points="1659.1 1576.5 1762 1741.8 1818.2 1484.7" class="st0"/><polygon points="1500 1668.4 1762 1741.8 1762 1741.8 1659.1 1576.5" class="st0"/><polygon points="1243.7 1745 1243.7 1745 1243.7 1745" class="st1"/><polygon points="1500 1668.4 1243.7 1745 1500 1893" class="st0"/><polygon points="987.3 1597 1243.7 1745 1181.8 1484.7" class="st2"/><polygon points="1181.8 1484.7 1243.7 1745 1340.9 1576.5" class="st3"/><polygon points="1340.9 1576.5 1243.7 1745 1500 1668.4" class="st0"/><polygon points="1818.2 1117.3 1818.2 1301 2012.7 1301" class="st0"/><polygon points="2012.7 1301 1818.2 1301 1818.2 1484.7" class="st3"/><polygon points="1762 860.2 1500 933.6 1659.1 1025.5 1762 860.2" class="st0"/><polygon points="1762 860.2 1659.1 1025.5 1818.2 1117.3" class="st0"/><g><path d="M1595.2,1446.7c-27.2,18-60.8,27.5-100.2,27.5c-123.5,0-180.3-90.4-180.3-192.2 c0-101.8,56.9-192.2,180.3-192.2c123.5,0,180.3,91,180.3,192.8c0,47.9-13,93.3-36.8,126.4l53.4,50.8l-43.1,40.7L1595.2,1446.7z M1547.6,1400.2l-51-46.5l43.4-39.7l49.7,46c13-23.3,18.5-48.7,18.5-78c0-70.3-33.1-128.8-113.2-128.8 c-80.1,0-113.2,58.4-113.2,128.8c0,70.6,33.1,129,113.2,129C1516.1,1411,1533.9,1406.5,1547.6,1400.2z" class="st4"/></g></g></g></svg>