<svg xmlns="http://www.w3.org/2000/svg" xmlns:xlink="http://www.w3.org/1999/xlink" id="Layer_1" width="24" height="20" x="0" y="0" enable-background="new 0 0 24 20" version="1.1" viewBox="0 0 24 20" xml:space="preserve"><g><defs><rect id="SVGID_1_" width="24" height="24" y="-2"/></defs><clipPath id="SVGID_2_"><use overflow="visible" xlink:href="#SVGID_1_"/></clipPath><path d="M23,9.01L18,9c-0.55,0-1,0.45-1,1v9c0,0.55,0.45,1,1,1h5c0.55,0,1-0.45,1-1v-9 C24,9.45,23.55,9.01,23,9.01 M23,18h-5v-7h5V18z M20,0H2C0.89,0,0,0.89,0,2v12c0,1.1,0.89,2,2,2h7v2H7v2h8v-2h-2v-2h2v-2H2V2h18v5 h2V2C22,0.89,21.1,0,20,0 M11.97,7L11,4l-0.97,3H7l2.47,1.76l-0.94,2.91L11,9.87l2.47,1.8L12.53,8.76L15,7H11.97z" clip-path="url(#SVGID_2_)"/></g></svg>