<svg xmlns="http://www.w3.org/2000/svg" xmlns:xlink="http://www.w3.org/1999/xlink" id="Layer_1" width="24" height="16" x="0" y="0" enable-background="new 0 0 24 16" version="1.1" viewBox="0 0 24 16" xml:space="preserve"><g><defs><rect id="SVGID_1_" width="24" height="24" y="-4"/></defs><clipPath id="SVGID_2_"><use overflow="visible" xlink:href="#SVGID_1_"/></clipPath><path d="M4,2h18V0H4C2.9,0,2,0.9,2,2v11H0v3h14v-3H4V2z M23,4h-6c-0.55,0-1,0.45-1,1v10 c0,0.55,0.45,1,1,1h6c0.55,0,1-0.45,1-1V5C24,4.45,23.55,4,23,4 M22,13h-4V6h4V13z" clip-path="url(#SVGID_2_)"/></g></svg>